<?xml version="1.0" encoding="UTF-8" standalone="no"?>
<!DOCTYPE svg PUBLIC "-//W3C//DTD SVG 1.1//EN"
 "http://www.w3.org/Graphics/SVG/1.1/DTD/svg11.dtd">
<!-- Generated by graphviz version 9.0.0 (20230911.1827)
 -->
<!-- Pages: 1 -->
<svg width="576pt" height="548pt"
 viewBox="0.00 0.00 576.00 548.00" xmlns="http://www.w3.org/2000/svg" xmlns:xlink="http://www.w3.org/1999/xlink">
<g id="graph0" class="graph" transform="scale(1 1) rotate(0) translate(4 544)">
<polygon fill="white" stroke="none" points="-4,4 -4,-544 572,-544 572,4 -4,4"/>
<!-- zc -->
<g id="node1" class="node">
<title>zc</title>
<ellipse fill="none" stroke="black" cx="272" cy="-522" rx="27" ry="18"/>
<text text-anchor="middle" x="272" y="-516.58" font-family="Times New Roman,serif" font-size="14.00">zc</text>
</g>
<!-- qb -->
<g id="node2" class="node">
<title>qb</title>
<ellipse fill="none" stroke="black" cx="272" cy="-450" rx="27" ry="18"/>
<text text-anchor="middle" x="272" y="-444.57" font-family="Times New Roman,serif" font-size="14.00">qb</text>
</g>
<!-- zc&#45;&gt;qb -->
<g id="edge1" class="edge">
<title>zc&#45;&gt;qb</title>
<path fill="none" stroke="black" d="M272,-503.7C272,-496.41 272,-487.73 272,-479.54"/>
<polygon fill="black" stroke="black" points="275.5,-479.62 272,-469.62 268.5,-479.62 275.5,-479.62"/>
</g>
<!-- pm -->
<g id="node3" class="node">
<title>pm</title>
<ellipse fill="none" stroke="black" cx="27" cy="-378" rx="27" ry="18"/>
<text text-anchor="middle" x="27" y="-372.57" font-family="Times New Roman,serif" font-size="14.00">pm</text>
</g>
<!-- zc&#45;&gt;pm -->
<g id="edge2" class="edge">
<title>zc&#45;&gt;pm</title>
<path fill="none" stroke="black" d="M251.95,-509.38C208.86,-484.41 107.25,-425.51 56.67,-396.2"/>
<polygon fill="black" stroke="black" points="58.7,-393.33 48.29,-391.34 55.19,-399.38 58.7,-393.33"/>
</g>
<!-- qb&#45;&gt;pm -->
<g id="edge7" class="edge">
<title>qb&#45;&gt;pm</title>
<path fill="none" stroke="black" d="M246.55,-443.58C207.61,-435.03 131.14,-417.18 68,-396 65.25,-395.08 62.42,-394.06 59.6,-392.99"/>
<polygon fill="black" stroke="black" points="60.91,-389.75 50.32,-389.3 58.32,-396.25 60.91,-389.75"/>
</g>
<!-- bf -->
<g id="node4" class="node">
<title>bf</title>
<ellipse fill="none" stroke="black" cx="308" cy="-90" rx="27" ry="18"/>
<text text-anchor="middle" x="308" y="-84.58" font-family="Times New Roman,serif" font-size="14.00">bf</text>
</g>
<!-- qb&#45;&gt;bf -->
<g id="edge3" class="edge">
<title>qb&#45;&gt;bf</title>
<path fill="none" stroke="black" d="M272,-431.51C272,-404.71 272,-351.87 272,-307 272,-307 272,-307 272,-233 272,-192.09 286.21,-146.54 296.78,-118.32"/>
<polygon fill="black" stroke="black" points="299.99,-119.7 300.34,-109.11 293.47,-117.17 299.99,-119.7"/>
</g>
<!-- kf -->
<g id="node5" class="node">
<title>kf</title>
<ellipse fill="none" stroke="black" cx="308" cy="-18" rx="27" ry="18"/>
<text text-anchor="middle" x="308" y="-12.57" font-family="Times New Roman,serif" font-size="14.00">kf</text>
</g>
<!-- qb&#45;&gt;kf -->
<g id="edge4" class="edge">
<title>qb&#45;&gt;kf</title>
<path fill="none" stroke="black" d="M264.49,-432.34C253.42,-406.2 234,-353.7 234,-307 234,-307 234,-307 234,-161 234,-115 264.92,-69.13 286.79,-42.45"/>
<polygon fill="black" stroke="black" points="289.31,-44.89 293.1,-35 283.97,-40.36 289.31,-44.89"/>
</g>
<!-- hd -->
<g id="node6" class="node">
<title>hd</title>
<ellipse fill="none" stroke="black" cx="365" cy="-378" rx="27" ry="18"/>
<text text-anchor="middle" x="365" y="-372.57" font-family="Times New Roman,serif" font-size="14.00">hd</text>
</g>
<!-- qb&#45;&gt;hd -->
<g id="edge5" class="edge">
<title>qb&#45;&gt;hd</title>
<path fill="none" stroke="black" d="M286.09,-434.15C299.25,-423.22 318.96,-408.3 335.48,-396.73"/>
<polygon fill="black" stroke="black" points="337.25,-399.77 343.51,-391.22 333.29,-393.99 337.25,-399.77"/>
</g>
<!-- nl -->
<g id="node7" class="node">
<title>nl</title>
<ellipse fill="none" stroke="black" cx="327" cy="-162" rx="27" ry="18"/>
<text text-anchor="middle" x="327" y="-156.57" font-family="Times New Roman,serif" font-size="14.00">nl</text>
</g>
<!-- qb&#45;&gt;nl -->
<g id="edge6" class="edge">
<title>qb&#45;&gt;nl</title>
<path fill="none" stroke="black" d="M276.91,-431.9C279.78,-421.56 283.35,-408.08 286,-396 302.07,-322.85 316.05,-235.68 322.76,-191.59"/>
<polygon fill="black" stroke="black" points="326.2,-192.25 324.23,-181.84 319.28,-191.21 326.2,-192.25"/>
</g>
<!-- lb -->
<g id="node8" class="node">
<title>lb</title>
<ellipse fill="none" stroke="black" cx="513" cy="-378" rx="27" ry="18"/>
<text text-anchor="middle" x="513" y="-372.57" font-family="Times New Roman,serif" font-size="14.00">lb</text>
</g>
<!-- qb&#45;&gt;lb -->
<g id="edge8" class="edge">
<title>qb&#45;&gt;lb</title>
<path fill="none" stroke="black" d="M297.58,-443.38C335.93,-434.7 410.41,-416.83 472,-396 474.75,-395.07 477.57,-394.05 480.39,-392.98"/>
<polygon fill="black" stroke="black" points="481.67,-396.24 489.67,-389.29 479.09,-389.73 481.67,-396.24"/>
</g>
<!-- ff -->
<g id="node10" class="node">
<title>ff</title>
<ellipse fill="none" stroke="black" cx="65" cy="-306" rx="27" ry="18"/>
<text text-anchor="middle" x="65" y="-300.57" font-family="Times New Roman,serif" font-size="14.00">ff</text>
</g>
<!-- pm&#45;&gt;ff -->
<g id="edge11" class="edge">
<title>pm&#45;&gt;ff</title>
<path fill="none" stroke="black" d="M35.81,-360.76C40.27,-352.55 45.8,-342.37 50.84,-333.09"/>
<polygon fill="black" stroke="black" points="53.82,-334.94 55.51,-324.48 47.67,-331.6 53.82,-334.94"/>
</g>
<!-- bf&#45;&gt;kf -->
<g id="edge22" class="edge">
<title>bf&#45;&gt;kf</title>
<path fill="none" stroke="black" d="M308,-71.7C308,-64.41 308,-55.73 308,-47.54"/>
<polygon fill="black" stroke="black" points="311.5,-47.62 308,-37.62 304.5,-47.62 311.5,-47.62"/>
</g>
<!-- kf&#45;&gt;zc -->
<g id="edge21" class="edge">
<title>kf&#45;&gt;zc</title>
<path fill="none" stroke="black" d="M334.85,-21.11C401.27,-27.93 568,-55.56 568,-161 568,-379 568,-379 568,-379 568,-492 390.48,-515.14 310.39,-519.83"/>
<polygon fill="black" stroke="black" points="310.64,-516.32 300.83,-520.32 310.99,-523.31 310.64,-516.32"/>
</g>
<!-- hd&#45;&gt;qb -->
<g id="edge10" class="edge">
<title>hd&#45;&gt;qb</title>
<path fill="none" stroke="black" d="M351.18,-393.63C337.99,-404.61 318.06,-419.69 301.41,-431.35"/>
<polygon fill="black" stroke="black" points="299.58,-428.36 293.31,-436.9 303.53,-434.13 299.58,-428.36"/>
</g>
<!-- ms -->
<g id="node9" class="node">
<title>ms</title>
<ellipse fill="none" stroke="black" cx="384" cy="-306" rx="27" ry="18"/>
<text text-anchor="middle" x="384" y="-300.57" font-family="Times New Roman,serif" font-size="14.00">ms</text>
</g>
<!-- hd&#45;&gt;ms -->
<g id="edge9" class="edge">
<title>hd&#45;&gt;ms</title>
<path fill="none" stroke="black" d="M369.6,-360.05C371.65,-352.49 374.13,-343.37 376.44,-334.85"/>
<polygon fill="black" stroke="black" points="379.8,-335.82 379.05,-325.25 373.05,-333.98 379.8,-335.82"/>
</g>
<!-- nl&#45;&gt;bf -->
<g id="edge25" class="edge">
<title>nl&#45;&gt;bf</title>
<path fill="none" stroke="black" d="M322.4,-144.05C320.35,-136.49 317.87,-127.37 315.56,-118.85"/>
<polygon fill="black" stroke="black" points="318.95,-117.98 312.95,-109.25 312.2,-119.82 318.95,-117.98"/>
</g>
<!-- ms&#45;&gt;qb -->
<g id="edge14" class="edge">
<title>ms&#45;&gt;qb</title>
<path fill="none" stroke="black" d="M393.68,-323.2C403.65,-342.2 415.8,-373.92 401,-396 380.86,-426.05 340.29,-439.08 309.99,-444.72"/>
<polygon fill="black" stroke="black" points="309.74,-441.21 300.44,-446.29 310.88,-448.12 309.74,-441.21"/>
</g>
<!-- cc -->
<g id="node12" class="node">
<title>cc</title>
<ellipse fill="none" stroke="black" cx="384" cy="-234" rx="27" ry="18"/>
<text text-anchor="middle" x="384" y="-228.57" font-family="Times New Roman,serif" font-size="14.00">cc</text>
</g>
<!-- ms&#45;&gt;cc -->
<g id="edge15" class="edge">
<title>ms&#45;&gt;cc</title>
<path fill="none" stroke="black" d="M384,-287.7C384,-280.41 384,-271.73 384,-263.54"/>
<polygon fill="black" stroke="black" points="387.5,-263.62 384,-253.62 380.5,-263.62 387.5,-263.62"/>
</g>
<!-- ff&#45;&gt;qb -->
<g id="edge12" class="edge">
<title>ff&#45;&gt;qb</title>
<path fill="none" stroke="black" d="M68.52,-324.25C73.49,-344.27 84.46,-376.95 106,-396 141.89,-427.74 196.9,-440.49 233.64,-445.6"/>
<polygon fill="black" stroke="black" points="233.02,-449.05 243.38,-446.82 233.89,-442.11 233.02,-449.05"/>
</g>
<!-- lm -->
<g id="node11" class="node">
<title>lm</title>
<ellipse fill="none" stroke="black" cx="103" cy="-234" rx="27" ry="18"/>
<text text-anchor="middle" x="103" y="-228.57" font-family="Times New Roman,serif" font-size="14.00">lm</text>
</g>
<!-- ff&#45;&gt;lm -->
<g id="edge13" class="edge">
<title>ff&#45;&gt;lm</title>
<path fill="none" stroke="black" d="M73.81,-288.76C78.27,-280.55 83.8,-270.37 88.84,-261.09"/>
<polygon fill="black" stroke="black" points="91.82,-262.94 93.51,-252.48 85.67,-259.6 91.82,-262.94"/>
</g>
<!-- lm&#45;&gt;qb -->
<g id="edge17" class="edge">
<title>lm&#45;&gt;qb</title>
<path fill="none" stroke="black" d="M102.61,-252.31C102.81,-284.51 107.74,-354.14 144,-396 167.15,-422.72 205.91,-436.23 234.73,-442.89"/>
<polygon fill="black" stroke="black" points="233.63,-446.24 244.14,-444.88 235.08,-439.39 233.63,-446.24"/>
</g>
<!-- dh -->
<g id="node13" class="node">
<title>dh</title>
<ellipse fill="none" stroke="black" cx="141" cy="-162" rx="27" ry="18"/>
<text text-anchor="middle" x="141" y="-156.57" font-family="Times New Roman,serif" font-size="14.00">dh</text>
</g>
<!-- lm&#45;&gt;dh -->
<g id="edge16" class="edge">
<title>lm&#45;&gt;dh</title>
<path fill="none" stroke="black" d="M111.81,-216.76C116.27,-208.55 121.8,-198.37 126.84,-189.09"/>
<polygon fill="black" stroke="black" points="129.82,-190.94 131.51,-180.48 123.67,-187.6 129.82,-190.94"/>
</g>
<!-- cc&#45;&gt;qb -->
<g id="edge23" class="edge">
<title>cc&#45;&gt;qb</title>
<path fill="none" stroke="black" d="M397.75,-249.93C405.96,-259.9 415.62,-273.75 420,-288 434.11,-333.89 446.1,-357.07 418,-396 393.4,-430.08 344.63,-442.31 310.24,-446.66"/>
<polygon fill="black" stroke="black" points="310.26,-443.14 300.69,-447.69 311.01,-450.1 310.26,-443.14"/>
</g>
<!-- cc&#45;&gt;nl -->
<g id="edge24" class="edge">
<title>cc&#45;&gt;nl</title>
<path fill="none" stroke="black" d="M371.63,-217.81C364.31,-208.82 354.87,-197.23 346.57,-187.03"/>
<polygon fill="black" stroke="black" points="349.33,-184.88 340.3,-179.33 343.9,-189.3 349.33,-184.88"/>
</g>
<!-- dh&#45;&gt;qb -->
<g id="edge19" class="edge">
<title>dh&#45;&gt;qb</title>
<path fill="none" stroke="black" d="M142.19,-180.45C145.75,-228.39 157.6,-360.82 182,-396 195.37,-415.27 218.2,-428.6 237.52,-437.07"/>
<polygon fill="black" stroke="black" points="236.12,-440.28 246.7,-440.82 238.77,-433.8 236.12,-440.28"/>
</g>
<!-- sz -->
<g id="node14" class="node">
<title>sz</title>
<ellipse fill="none" stroke="black" cx="160" cy="-90" rx="27" ry="18"/>
<text text-anchor="middle" x="160" y="-84.58" font-family="Times New Roman,serif" font-size="14.00">sz</text>
</g>
<!-- dh&#45;&gt;sz -->
<g id="edge18" class="edge">
<title>dh&#45;&gt;sz</title>
<path fill="none" stroke="black" d="M145.6,-144.05C147.65,-136.49 150.13,-127.37 152.44,-118.85"/>
<polygon fill="black" stroke="black" points="155.8,-119.82 155.05,-109.25 149.05,-117.98 155.8,-119.82"/>
</g>
<!-- sz&#45;&gt;qb -->
<g id="edge20" class="edge">
<title>sz&#45;&gt;qb</title>
<path fill="none" stroke="black" d="M167.11,-107.7C177.6,-133.89 196,-186.46 196,-233 196,-307 196,-307 196,-307 196,-347.97 199.66,-360.44 220,-396 226.86,-407.99 237.09,-419.23 246.67,-428.25"/>
<polygon fill="black" stroke="black" points="244.26,-430.79 254.04,-434.85 248.93,-425.57 244.26,-430.79"/>
</g>
</g>
</svg>
